<?xml version="1.0" encoding="utf-8"?>
<!-- Generator: Adobe Illustrator 24.3.0, SVG Export Plug-In . SVG Version: 6.00 Build 0)  -->
<svg version="1.1" id="Layer_1" xmlns="http://www.w3.org/2000/svg" xmlns:xlink="http://www.w3.org/1999/xlink" x="0px" y="0px"
	 viewBox="0 0 143.9 49.7" style="enable-background:new 0 0 143.9 49.7;" xml:space="preserve">
<g>
	<g>
		<path d="M23.3,48.4c5.2,0,9.8-1.7,13.6-4.5v-7.2c-3.3,3.5-7.9,5.6-13.3,5.6c-9.7,0-17-7.5-17-17.3S14,7.8,23.6,7.8
			c5.3,0,10,2.2,13.3,5.6V6.2c-3.7-2.8-8.3-4.5-13.6-4.5C10,1.7,0,12.1,0,25.1S10,48.4,23.3,48.4"/>
	</g>
	<polygon points="58.3,2.4 58.3,47.6 88.6,47.6 88.6,41.6 64.8,41.6 64.8,2.4 	"/>
	<path d="M122.3,14.8h0.1l7.2,16h-14.5L122.3,14.8z M122.4,0l-21.5,47.6h6.7l4.9-10.8h19.7l4.9,10.8h6.8L122.4,0z"/>
</g>
</svg>
