<?xml version="1.0" encoding="utf-8"?>
<!-- Generator: Adobe Illustrator 24.3.0, SVG Export Plug-In . SVG Version: 6.00 Build 0)  -->
<svg version="1.1" id="Layer_1" xmlns="http://www.w3.org/2000/svg" xmlns:xlink="http://www.w3.org/1999/xlink" x="0px" y="0px"
	 viewBox="0 0 650.3 49.7" style="enable-background:new 0 0 650.3 49.7;" xml:space="preserve">
<style type="text/css">
	.st0{fill:#FFFFFF;}
</style>
<g>
	<path class="st0" d="M23.3,48.4c5.2,0,9.8-1.7,13.6-4.5v-7.2c-3.3,3.5-7.9,5.6-13.3,5.6c-9.7,0-17-7.5-17-17.3S14,7.8,23.6,7.8
		c5.3,0,10,2.2,13.3,5.6V6.2c-3.7-2.8-8.3-4.5-13.6-4.5C10,1.7,0,12.1,0,25.1S10,48.4,23.3,48.4"/>
	<path class="st0" d="M66.3,18.9V22c-2.5-2.4-5.7-3.8-9.4-3.8c-8.2,0-14.5,6.8-14.5,15.2s6.3,15.1,14.5,15.1c3.7,0,6.9-1.4,9.4-3.8
		v3.1h5.9V18.9H66.3z M57.5,42.5c-5,0-8.8-3.9-8.8-9.2s3.8-9.3,8.8-9.3s8.8,4,8.8,9.2C66.3,38.6,62.5,42.5,57.5,42.5z"/>
	<rect x="81.1" y="1" class="st0" width="6.1" height="46.7"/>
	<path class="st0" d="M122.6,33.3c0-8.6-6-15.1-14-15.1s-14,6.5-14,15.1c0,8.4,6.5,15.1,14.8,15.1c5.4,0,10-2.8,12.7-7.1l-4.9-3.1
		c-1.5,2.6-4.3,4.3-7.5,4.3c-4.5,0-8-2.9-8.6-7h21.5C122.6,34.8,122.6,34.1,122.6,33.3z M100.9,30.6c0.5-4,3.6-6.8,7.7-6.8
		c4.3,0,7.2,2.9,7.7,6.8C116.3,30.6,100.9,30.6,100.9,30.6z"/>
	<path class="st0" d="M145.2,18.2c-3.5,0-6.7,1.3-9.1,3.6V1H130v46.7h5.9v-3.1c2.5,2.4,5.7,3.8,9.4,3.8c8.2,0,14.5-6.7,14.5-15.1
		C159.7,24.9,153.4,18.2,145.2,18.2z M144.6,42.5c-5,0-8.8-4-8.8-9.2c0-5.3,3.8-9.2,8.8-9.2s8.8,4,8.8,9.3
		C153.4,38.6,149.6,42.5,144.6,42.5z"/>
	<path class="st0" d="M222.7,14.4c2.3,0,4.2-1.9,4.2-4.2S225,6,222.7,6s-4.2,1.9-4.2,4.2S220.4,14.4,222.7,14.4"/>
	<rect x="219.6" y="18.9" class="st0" width="6.1" height="28.8"/>
	<g>
		<path class="st0" d="M255.8,21.5c-2-2-4.8-3.2-7.9-3.3c-3-0.1-5.6,1.1-7.5,2.9v-2.2h-5.8v28.8h6.1V31.4c0-3,0.6-4.4,1.7-5.6
			c1.1-1.1,2.6-1.7,4.4-1.7s3.3,0.7,4.4,1.7c1.1,1.1,1.7,2.6,1.7,5.6v16.3h6.1V30.8C259.1,26.4,257.9,23.6,255.8,21.5"/>
	</g>
	<polygon class="st0" points="285.8,18.9 277.5,36.4 277.4,36.4 269.1,18.9 262.6,18.9 277.4,49.7 292.2,18.9 	"/>
	<g>
		<path class="st0" d="M300.4,14.4c2.3,0,4.2-1.9,4.2-4.2S302.7,6,300.4,6c-2.3,0-4.2,1.9-4.2,4.2C296.2,12.5,298.1,14.4,300.4,14.4
			"/>
	</g>
	<rect x="297.3" y="18.9" class="st0" width="6.1" height="28.8"/>
	<rect x="312.4" y="1" class="st0" width="6.1" height="46.7"/>
	<rect x="327.4" y="1" class="st0" width="6.1" height="46.7"/>
	<g>
		<path class="st0" d="M362.6,30.6h-15.4c0.5-4,3.6-6.8,7.7-6.8C359.2,23.8,362.1,26.7,362.6,30.6 M368.9,33.3c0-8.6-6-15.1-14-15.1
			s-14,6.5-14,15.1c0,8.4,6.5,15.1,14.8,15.1c5.4,0,10-2.8,12.7-7.1l-4.9-3.1c-1.5,2.6-4.3,4.3-7.5,4.3c-4.5,0-8-2.9-8.6-7h21.5
			C368.9,34.8,368.9,34.1,368.9,33.3"/>
	</g>
	<path class="st0" d="M405.7,14.9h0.1l7.2,16h-14.5L405.7,14.9z M405.8,0l-21.5,47.6h6.7l4.9-10.8h19.7l4.9,10.8h6.8L405.8,0z"/>
	<path class="st0" d="M446.3,18.5c-3,0-5.6,1.2-7.6,3.1c-0.3,0.3-0.6,0.6-0.8,1v-3.7h-5.8v28.8h6.1V33.3c0-3.4,0.8-5.3,2.2-6.7
		c1.4-1.4,3.4-2.3,5.7-2.3c0.7,0,1.4,0.1,2.1,0.1v-5.8C447.6,18.6,446.9,18.5,446.3,18.5"/>
	<path class="st0" d="M466.9,42.6c-5.3,0-9.4-4-9.4-9.3s4-9.3,9.4-9.3c2.8,0,5.3,1.1,7.1,2.8v-6.5c-2.2-1.4-4.8-2.2-7.7-2.2
		c-8.6,0-15.1,6.8-15.1,15.2s6.5,15.2,15.1,15.2c2.9,0,5.5-0.8,7.7-2.2v-6.5C472.2,41.6,469.7,42.6,466.9,42.6"/>
	<path class="st0" d="M502.3,21.5c-2-2-4.8-3.2-7.9-3.3c-2.8-0.1-5.3,1-7.1,2.6V1h-6.1v46.7h6.1V31.4c0-3,0.6-4.4,1.7-5.6
		c1.1-1.1,2.6-1.7,4.4-1.7s3.3,0.7,4.4,1.7c1.1,1.1,1.7,2.6,1.7,5.6v16.3h6.1V30.8C505.6,26.4,504.4,23.6,502.3,21.5"/>
	<path class="st0" d="M517.1,14.4c2.3,0,4.2-1.9,4.2-4.2S519.4,6,517.1,6s-4.2,1.9-4.2,4.2C512.9,12.5,514.9,14.4,517.1,14.4"/>
	<rect x="514.1" y="18.9" class="st0" width="6.1" height="28.8"/>
	<polygon class="st0" points="532,47.7 538.1,47.7 538.1,24.5 544.2,24.5 544.2,18.9 538.1,18.9 538.1,7.7 532,7.7 532,18.9 
		526.8,18.9 526.8,24.5 532,24.5 	"/>
	<path class="st0" d="M569.3,30.6H554c0.5-4,3.6-6.8,7.7-6.8C565.9,23.8,568.8,26.7,569.3,30.6 M575.7,33.3c0-8.6-6-15.1-14-15.1
		s-14,6.5-14,15.1c0,8.4,6.5,15.1,14.8,15.1c5.4,0,10-2.8,12.7-7.1l-4.9-3.1c-1.5,2.6-4.3,4.3-7.5,4.3c-4.5,0-8-2.9-8.6-7h21.5
		C575.6,34.8,575.7,34.1,575.7,33.3"/>
	<path class="st0" d="M596.8,42.6c-5.3,0-9.4-4-9.4-9.3s4-9.3,9.4-9.3c2.8,0,5.3,1.1,7.1,2.8v-6.5c-2.2-1.4-4.8-2.2-7.7-2.2
		c-8.6,0-15.1,6.8-15.1,15.2s6.5,15.2,15.1,15.2c2.9,0,5.5-0.8,7.7-2.2v-6.5C602.1,41.6,599.6,42.6,596.8,42.6"/>
	<polygon class="st0" points="614.2,47.7 620.3,47.7 620.3,24.5 626.4,24.5 626.4,18.9 620.3,18.9 620.3,7.7 614.2,7.7 614.2,18.9 
		609,18.9 609,24.5 614.2,24.5 	"/>
	<g>
		<path class="st0" d="M643.1,26l5.8-2.1c-1.1-3.3-4.6-5.7-8.8-5.7c-5.2,0-9.2,3.6-9.2,8.2c0,3.9,2.4,6.5,6.2,8.2l4.3,1.9
			c1.7,0.8,2.5,1.8,2.5,3.2c0,1.9-1.5,3.3-3.7,3.3c-2,0-3.8-1.3-4.2-3.2l-6,1c0.7,4.4,5,7.7,10.2,7.7c5.7,0,10-3.9,10-8.9
			c0-4.1-2.4-6.9-6.1-8.5l-4.4-1.9c-1.9-0.8-2.6-1.7-2.6-2.9c0-1.5,1.3-2.6,2.9-2.6C641.6,23.6,642.8,24.6,643.1,26"/>
	</g>
	<polygon class="st0" points="182.5,2.4 182.5,47.7 212.9,47.7 212.9,41.7 188.9,41.7 188.9,2.4 	"/>
</g>
</svg>
